HIERARCHY
ROOT SimulationBone
{
	OFFSET 0.000000 0.000000 0.000000
	CHANNELS 6 Xposition Yposition Zposition Zrotation Yrotation Xrotation 
	JOINT Hips
	{
		OFFSET 0.000000 0.000000 0.000000
		CHANNELS 6 Xposition Yposition Zposition Zrotation Yrotation Xrotation 
		JOINT LeftUpLeg
		{
			OFFSET 0.103454 1.857841 10.548502
			CHANNELS 3 Zrotation Yrotation Xrotation
			JOINT LeftLeg
			{
				OFFSET 43.500000 -0.000034 -0.000004
				CHANNELS 3 Zrotation Yrotation Xrotation
				JOINT LeftFoot
				{
					OFFSET 42.372192 0.000027 -0.000002
					CHANNELS 3 Zrotation Yrotation Xrotation
					JOINT LeftToe
					{
						OFFSET 17.300003 0.000001 0.000001
						CHANNELS 3 Zrotation Yrotation Xrotation
						End Site
						{
							OFFSET 0.000000 0.000000 0.000000
						}
					}
				}
			}
		}
		JOINT RightUpLeg
		{
			OFFSET 0.103461 1.857837 -10.548502
			CHANNELS 3 Zrotation Yrotation Xrotation
			JOINT RightLeg
			{
				OFFSET 43.500046 -0.000034 0.000013
				CHANNELS 3 Zrotation Yrotation Xrotation
				JOINT RightFoot
				{
					OFFSET 42.372261 0.000004 0.000013
					CHANNELS 3 Zrotation Yrotation Xrotation
					JOINT RightToe
					{
						OFFSET 17.299986 -0.000008 0.000013
						CHANNELS 3 Zrotation Yrotation Xrotation
						End Site
						{
							OFFSET 0.000000 0.000000 0.000000
						}
					}
				}
			}
		}
		JOINT Spine
		{
			OFFSET 6.901964 -2.603740 0.000003
			CHANNELS 3 Zrotation Yrotation Xrotation
			JOINT Spine1
			{
				OFFSET 12.588108 0.000020 -0.000003
				CHANNELS 3 Zrotation Yrotation Xrotation
				JOINT Spine2
				{
					OFFSET 12.343194 -0.000020 0.000000
					CHANNELS 3 Zrotation Yrotation Xrotation
					JOINT Neck
					{
						OFFSET 25.832893 -0.000004 0.000001
						CHANNELS 3 Zrotation Yrotation Xrotation
						JOINT Head
						{
							OFFSET 11.766617 0.000023 0.000000
							CHANNELS 3 Zrotation Yrotation Xrotation
							End Site
							{
								OFFSET 0.000000 0.000000 0.000000
							}
						}
					}
					JOINT LeftShoulder
					{
						OFFSET 19.745911 -1.480362 6.000106
						CHANNELS 3 Zrotation Yrotation Xrotation
						JOINT LeftArm
						{
							OFFSET 11.284124 -0.000010 -0.000029
							CHANNELS 3 Zrotation Yrotation Xrotation
							JOINT LeftForeArm
							{
								OFFSET 33.000050 0.000006 0.000043
								CHANNELS 3 Zrotation Yrotation Xrotation
								JOINT LeftHand
								{
									OFFSET 25.200006 0.000015 0.000002
									CHANNELS 3 Zrotation Yrotation Xrotation
									End Site
									{
										OFFSET 0.000000 0.000000 0.000000
									}
								}
							}
						}
					}
					JOINT RightShoulder
					{
						OFFSET 19.746103 -1.480366 -6.000076
						CHANNELS 3 Zrotation Yrotation Xrotation
						JOINT RightArm
						{
							OFFSET 11.284135 -0.000031 -0.000006
							CHANNELS 3 Zrotation Yrotation Xrotation
							JOINT RightForeArm
							{
								OFFSET 33.000095 0.000024 0.000006
								CHANNELS 3 Zrotation Yrotation Xrotation
								JOINT RightHand
								{
									OFFSET 25.199774 0.000153 0.000421
									CHANNELS 3 Zrotation Yrotation Xrotation
									End Site
									{
										OFFSET 0.000000 0.000000 0.000000
									}
								}
							}
						}
					}
				}
			}
		}
	}
}
MOTION
Frames: 9
Frame Time: 0.016667
118.439088 0.000000 286.998930 0.000000 60.679451 0.000000 1.912481 89.280830 -0.313590 96.334500 -2.774652 177.919165 171.149186 -0.772399 179.273478 -28.244896 -2.566252 -6.298310 77.767686 3.495256 -3.799277 21.454551 0.003091 -0.000001 172.099006 7.981205 172.167363 -71.236768 -3.424264 2.109829 71.856000 -0.413905 2.999607 21.454553 -0.003106 -0.000015 7.286314 -1.495365 0.940403 4.537280 -3.026155 1.822583 4.218886 -3.014953 1.840832 17.981786 -19.326954 -25.554237 -13.706756 21.073171 -33.840134 -157.239328 -71.718554 -24.834202 -15.526174 46.478583 30.394098 -31.252646 -13.313602 1.145804 7.961218 -0.971861 31.380801 -166.045777 72.376997 15.730804 -22.735127 -62.241511 -16.144826 -25.777539 16.018402 -1.244960 13.186984 8.470389 3.059267 
118.435526 0.000000 285.446955 0.000000 60.624313 0.000000 1.955903 89.538932 -0.384970 96.453490 -2.719973 178.018739 172.870785 -0.235123 179.190465 -26.908692 -2.607109 -6.354024 78.137590 3.681871 -3.255160 21.454551 0.003088 0.000001 169.691872 7.002079 172.650397 -73.673317 -3.512958 2.947876 72.714568 -1.065677 2.908658 21.454562 -0.003112 -0.000016 7.291150 -1.463626 0.816521 4.550615 -2.957970 1.575869 4.232188 -2.948261 1.593712 18.225573 -19.525669 -25.486521 -13.845375 21.242844 -33.829111 -157.659448 -72.361296 -24.390158 -17.675205 46.694524 27.082295 -32.219318 -13.681710 1.189975 8.383123 -1.094857 29.638023 -165.765217 72.238857 16.019944 -20.378107 -62.376184 -17.899613 -24.239789 15.244778 -1.170811 14.669862 6.774105 2.344863 
118.449738 0.000000 283.888499 0.000000 60.623806 0.000000 1.975485 89.730904 -0.447313 96.509362 -2.740157 178.203586 174.476185 0.315702 179.193004 -25.620950 -2.739770 -6.350414 78.516411 3.838666 -2.652720 21.454553 0.003086 0.000003 167.296427 6.138005 173.340038 -75.570708 -3.516791 3.734295 72.890685 -1.545733 3.196204 21.454570 -0.003118 -0.000017 7.281278 -1.449217 0.673079 4.534725 -2.923486 1.289758 4.216257 -2.915509 1.307400 18.600502 -19.583349 -25.482147 -14.051166 21.432601 -33.887593 -158.002628 -72.963062 -24.026700 -19.942271 46.777523 23.953677 -33.323020 -14.133465 1.241895 8.523903 -0.774801 28.982489 -165.365777 71.979391 16.432189 -17.377520 -62.253559 -20.603210 -23.334248 14.666124 -1.121203 15.129263 5.029641 0.450832 
118.480905 0.000000 282.319852 0.000000 60.682655 0.000000 1.971587 89.834927 -0.483648 96.509801 -2.872218 178.453552 175.935538 0.926326 179.293630 -24.469095 -2.923234 -6.306037 78.941083 3.967239 -2.037900 21.454551 0.003090 0.000001 164.876428 5.384527 174.203233 -76.960310 -3.463700 4.475104 72.446422 -2.016078 3.377760 21.454565 -0.003112 -0.000017 7.263763 -1.462067 0.512489 4.503724 -2.942823 0.968501 4.185216 -2.936784 0.986268 18.958930 -19.493888 -25.524815 -14.222232 21.520612 -33.954862 -158.543355 -73.446004 -23.463384 -22.190716 46.579033 21.267591 -34.609854 -14.689721 1.305192 8.271376 -0.156584 29.168621 -164.784444 71.634661 17.032458 -13.876286 -61.888148 -24.263047 -23.038925 14.361766 -1.098283 14.536902 3.083983 -2.258592 
118.529061 0.000000 280.738128 0.000000 60.803302 0.000000 1.961276 89.863007 -0.496354 96.496030 -3.049626 178.700402 177.320426 1.531101 179.532178 -23.441402 -3.186908 -6.276045 79.429218 4.103416 -1.423795 21.454550 0.003094 -0.000001 162.516647 4.684904 175.107595 -77.825825 -3.317761 5.116580 71.879428 -2.409921 3.581194 21.454558 -0.003103 -0.000017 7.247473 -1.489502 0.348341 4.475274 -2.991272 0.639540 4.156728 -2.987217 0.657611 19.213384 -19.192567 -25.584960 -14.322411 21.450412 -33.985805 -159.032102 -73.861013 -22.955299 -24.459067 46.190895 18.929856 -36.067639 -15.239043 1.375434 7.863402 0.389762 29.876042 -163.931875 71.257189 17.912916 -10.155414 -61.332303 -28.572593 -23.220422 14.250422 -1.093129 13.229595 1.094296 -5.551513 
118.595523 0.000000 279.141521 0.000000 60.985387 0.000000 1.958808 89.836544 -0.493786 96.499714 -3.192000 178.885061 178.705682 2.056742 179.947685 -22.492049 -3.548690 -6.317330 79.979491 4.283082 -0.820883 21.454551 0.003093 -0.000001 160.309098 3.974799 175.938853 -78.133428 -3.040790 5.587669 71.665327 -2.630407 3.983873 21.454557 -0.003101 -0.000018 7.237288 -1.513710 0.192546 4.458961 -3.033672 0.327251 4.140380 -3.031505 0.345589 19.325833 -18.654859 -25.636686 -14.352267 21.221486 -33.959256 -159.185070 -74.271297 -22.791924 -26.808812 45.724160 16.790225 -37.665283 -15.672022 1.442850 7.541495 0.549907 30.766859 -162.775678 70.892260 19.107132 -6.464949 -60.647804 -33.233042 -23.725344 14.225033 -1.098671 11.607256 -0.696812 -9.102076 
118.680914 0.000000 277.528780 0.000000 61.226903 0.000000 1.950640 89.780678 -0.483202 96.477737 -3.265307 179.026858 -179.922797 2.517705 -179.443249 -21.539393 -3.915926 -6.450804 80.531126 4.509390 -0.264542 21.454553 0.003090 0.000000 158.247943 3.258804 176.744928 -77.830305 -2.644664 5.810208 71.767761 -2.687410 4.379427 21.454560 -0.003103 -0.000018 7.220631 -1.519118 0.039167 4.429697 -3.038631 0.020681 4.111104 -3.038318 0.039055 19.395181 -18.074139 -25.679267 -14.391738 20.991743 -33.931938 -159.215819 -74.648322 -22.754399 -29.123557 45.188442 14.917473 -39.361177 -16.018020 1.507519 7.261576 0.472447 31.471745 -161.528017 70.549936 20.396610 -2.953337 -59.812135 -38.129783 -24.426918 14.237317 -1.110187 10.051206 -2.054799 -11.959516 
118.785257 0.000000 275.899575 0.000000 61.523601 0.000000 1.921236 89.713349 -0.471676 96.378924 -3.260808 179.159730 -178.600384 2.947680 -178.656966 -20.525123 -4.189640 -6.668649 81.030928 4.769760 0.215235 21.454554 0.003089 -0.000000 156.307097 2.562540 177.593335 -76.870987 -2.149852 5.768264 72.000037 -2.635579 4.542576 21.454559 -0.003102 -0.000016 7.183890 -1.496282 -0.121514 4.360295 -2.987004 -0.298899 4.041730 -2.988618 -0.280840 19.519961 -17.636283 -25.719047 -14.510368 20.899910 -33.959608 -159.382682 -74.960914 -22.578618 -31.266198 44.613717 13.368485 -41.122496 -16.325328 1.573710 6.932996 0.351210 31.729489 -160.387794 70.239280 21.576014 0.265995 -58.816629 -43.114160 -25.215021 14.255116 -1.123564 8.813022 -2.768558 -13.372776 
118.909338 0.000000 274.254996 0.000000 61.867880 0.000000 1.872103 89.619957 -0.466903 96.196819 -3.223716 179.293371 -177.360355 3.370891 -177.823524 -19.519327 -4.358454 -6.891901 81.517023 5.014537 0.636802 21.454553 0.003090 0.000000 154.480629 1.899897 178.473485 -75.248856 -1.581723 5.690637 72.083008 -2.606538 4.543057 21.454558 -0.003104 -0.000013 7.126957 -1.457749 -0.296485 4.250590 -2.903794 -0.645994 3.932077 -2.907501 -0.628437 19.660997 -17.280076 -25.770596 -14.659789 20.849666 -34.018774 -159.514531 -75.262977 -22.438993 -33.196040 44.163155 11.930594 -42.958416 -16.579941 1.641646 6.533008 0.097382 31.757431 -159.314872 69.979151 22.686192 3.204131 -57.777497 -47.794151 -26.019873 14.251734 -1.136438 7.833597 -3.001691 -13.957434 
